<svg width="1728" height="269" viewBox="0 0 1728 269" fill="none" xmlns="http://www.w3.org/2000/svg">
<path fill-rule="evenodd" clip-rule="evenodd" d="M-1 253.407L71.0417 259.44C143.083 265.474 287.167 277.541 431.25 259.44C575.333 241.34 719.417 193.072 863.5 187.038C1007.58 181.005 1151.67 217.206 1295.75 199.105C1439.83 181.005 1583.92 108.603 1655.96 72.4019L1728 36.201V0H1655.96C1583.92 0 1439.83 0 1295.75 0C1151.67 0 1007.58 0 863.5 0C719.417 0 575.333 0 431.25 0C287.167 0 143.083 0 71.0417 0H-1V253.407Z" fill="#123C35"/>
</svg>
