<svg width="1729" height="269" viewBox="0 0 1729 269" fill="none" xmlns="http://www.w3.org/2000/svg">
<path fill-rule="evenodd" clip-rule="evenodd" d="M0 253.407L72.0417 259.44C144.083 265.474 288.167 277.541 432.25 259.44C576.333 241.34 720.417 193.072 864.5 187.038C1008.58 181.005 1152.67 217.206 1296.75 199.105C1440.83 181.005 1584.92 108.603 1656.96 72.4019L1729 36.201V0H1656.96C1584.92 0 1440.83 0 1296.75 0C1152.67 0 1008.58 0 864.5 0C720.417 0 576.333 0 432.25 0C288.167 0 144.083 0 72.0417 0H0V253.407Z" fill="#25433E"/>
</svg>
