<svg width="1728" height="240" viewBox="0 0 1728 240" fill="none" xmlns="http://www.w3.org/2000/svg">
<path fill-rule="evenodd" clip-rule="evenodd" d="M-1 182.559H95.5358C190.631 182.559 383.702 182.559 575.333 149.053C766.964 115.546 960.036 48.5316 1151.67 19.8114C1343.3 -8.90886 1536.37 0.664558 1631.46 5.45127L1728 10.238V240H1631.46C1536.37 240 1343.3 240 1151.67 240C960.036 240 766.964 240 575.333 240C383.702 240 190.631 240 95.5358 240H-1V182.559Z" fill="#14453D"/>
<path fill-rule="evenodd" clip-rule="evenodd" d="M-1 182.559H95.5358C190.631 182.559 383.702 182.559 575.333 149.053C766.964 115.546 960.036 48.5316 1151.67 19.8114C1343.3 -8.90886 1536.37 0.664558 1631.46 5.45127L1728 10.238V240H1631.46C1536.37 240 1343.3 240 1151.67 240C960.036 240 766.964 240 575.333 240C383.702 240 190.631 240 95.5358 240H-1V182.559Z" fill="#123C35"/>
<path fill-rule="evenodd" clip-rule="evenodd" d="M-1 182.559H95.5358C190.631 182.559 383.702 182.559 575.333 149.053C766.964 115.546 960.036 48.5316 1151.67 19.8114C1343.3 -8.90886 1536.37 0.664558 1631.46 5.45127L1728 10.238V240H1631.46C1536.37 240 1343.3 240 1151.67 240C960.036 240 766.964 240 575.333 240C383.702 240 190.631 240 95.5358 240H-1V182.559Z" stroke="black"/>
</svg>
